<svg xmlns="http://www.w3.org/2000/svg" viewBox="0 0 580 400"><g><path fill="#888889" stroke="#050606" stroke-miterlimit="10" d="M321.7 341.3l-4.3 26.8H416l-5.2-26.7h-89z"></path><path fill="#767677" d="M321.4 348.7l-.8 6h92l-1.2-7H322"></path><path fill="#E5E9ED" stroke="#050606" stroke-miterlimit="10" d="M541 349.4H192.6c-6.8 0-12.3-5.3-12.3-11.8V78c0-6.4 5.5-11.7 12.3-11.7H541c6.8 0 12.3 5.3 12.3 11.8v259.5c0 6.6-5.4 12-12.2 12z"></path><path fill="#202021" stroke="#050606" stroke-miterlimit="10" d="M543.8 303.3H186c-3.2 0-5.8-2.6-5.8-5.8V77.2c0-6 5-11 11-11h350.6c6.4 0 11.7 5.2 11.7 11.7v215.7c0 5.3-4.4 9.6-9.7 9.6z"></path><path id="screen" fill="#434445" stroke="#070808" stroke-miterlimit="10" d="M196.3 79h341v211.4h-341V79z"><animate attributeName="fill" dur="1000ms" to="#fcfcfc" begin="1s" fill="freeze"></animate><animate attributeName="fill" dur="1000ms" to="#797979" begin="12s" fill="freeze"></animate></path><text font-size="14" font-weight="400" fill="#797979"><textPath xmlns:xlink="http://www.w3.org/1999/xlink" xlink:href="#path">Hey, welcome aboard!</textPath><textPath xmlns:xlink="http://www.w3.org/1999/xlink" xlink:href="#path2">Might want to check some of my articles, while</textPath><textPath xmlns:xlink="http://www.w3.org/1999/xlink" xlink:href="#path3">you're here.</textPath><textPath xmlns:xlink="http://www.w3.org/1999/xlink" xlink:href="#path4">I have some photographs too.</textPath><textPath xmlns:xlink="http://www.w3.org/1999/xlink" xlink:href="#path5">Well yeah..</textPath><textPath xmlns:xlink="http://www.w3.org/1999/xlink" xlink:href="#path6">Alright go on, do your thing!</textPath></text><path id="path" d="M 210.3 120 h 1100"><animate attributeName="d" from="M210.3,120 h0" to="M210.3,120 h1100" dur="4.8s" begin="2.4s" repeatCount="1" fill="freeze"></animate></path><path id="path2" d="M 210 140 h 1100"><animate attributeName="d" from="M210,140 h00" to="M210,140 h1100" dur="4.8s" begin="3.8s" repeatCount="1" fill="freeze"></animate></path><path id="path3" d="M 210 160 h 1100"><animate attributeName="d" from="M210,160 h0" to="M210,160 h1100" dur="4.8s" begin="5.4s" repeatCount="1" fill="freeze"></animate></path><path id="path4" d="M 210 190 h 1100"><animate attributeName="d" from="M210,190 h0" to="M210,190 h1100" dur="4.8s" begin="6.3s" repeatCount="1" fill="freeze"></animate></path><path id="path5" d="M 210 220 h 1100"><animate attributeName="d" from="M210,220 h0" to="M210,220 h1100" dur="4.8s" begin="7.9s" repeatCount="1" fill="freeze"></animate></path><path id="path6" d="M 210 240 h 1100"><animate attributeName="d" from="M210,240 h0" to="M210,240 h1100" dur="4.8s" begin="8.9s" repeatCount="1" fill="freeze"></animate></path><path fill="#C7C6C6" stroke="#070808" stroke-width="2" stroke-miterlimit="10" d="M292 389.3l1 5.6c0 1.2 1.2 2 2.5 2h138.2c3 0 5.4-2 6-4.8 0-1-.7-2-1.6-2l-146-1z"></path><path fill="#A3A3A2" stroke="#070808" stroke-miterlimit="10" d="M317 368l-25.3 20.4c-1.3 1-.6 3.3 1.2 3.3l145.4-.4c1 0 1.6-1.3.8-2L415.4 368H317z"></path><path fill="#A3A3A2" d="M318.5 367l-.6 1.3c-1 1-1.5 1.3-2 2l-4.8 3.6 109.2.3-3-3-1.2-1.3c-.7-.8-.7-.6-1-1.7V367h-96.7zm-23.7 27.8c.3.6 1.2 1.8 2 1.8h135.7c.5 0 1 0 1.6-.2.6-.2 1.3-1.2 2-1.6H294.7z"></path><circle cx="366.8" cy="73.6" r="1.3" fill="#000"><animate attributeName="fill" dur="2000ms" to="lightgreen" begin="1s" fill="freeze"></animate></circle><path fill="#2D2D2D" d="M362.7 68.5l-166 2.5s-9.8 1-11 10.3c-1.2 9.4-2 118.4-3.4 139s0-139 0-139-2-13.4 14.2-13l166.2.2zm7.5 0l166 2.5s9.8 1 11 10.3c1.2 9.4 2 118.4 3.4 139s0-139 0-139 2-13.4-14.2-13l-166.2.2z"></path><path fill="#CED1D3" d="M537 348.4H195.5c-10.5 1-14-5.4-14.2-8.6 1.4.4 3 .6 4.4.6l358.8 1.6c2.5 0 5-.4 7.2-1.3-1 3.4-3.6 8.7-15 7.7z"></path><path fill="#434445" fill-rule="evenodd" d="M366.3 318.8c.6 0 1.4 0 2.2.4l1.7.4c.4 0 1 0 1.8-.4.8-.3 1.6-.4 2.2-.4 1 0 2 .3 2.7.8.3.3.8.7 1.2 1.3-.7.5-1 1-1.4 1.4-.5.8-.8 1.7-.8 2.6 0 1 .3 2 1 2.8.5.8 1 1.4 2 1.6l-1.6 3.2c-1 1.6-2.2 2.5-3.2 2.5-.4 0-1 0-1.8-.3-.7-.3-1.4-.4-2-.4s-1 0-1.7.4c-.7.3-1.2.4-1.7.4-1.3 0-2.5-1-3.8-3.2-1.2-2.2-2-4.3-2-6.3s.6-3.5 1.5-4.7c1-1.4 2-2 3.6-2z" clip-rule="evenodd"></path><path fill="#434445" fill-rule="evenodd" d="M374 314v.5c0 .5 0 1-.3 1.7-.2.6-.6 1.2-1.2 1.7-.5.4-1 .7-1.4.8l-1.2.2c0-1.2.3-2.3 1-3.2.7-1 1.8-1.5 3.2-1.8z" clip-rule="evenodd"></path><path fill="#E5E9ED" stroke="#333333" stroke-miterlimit="10" d="M466 399.8H136.4V395c0-4 3.2-7.2 7.2-7.2h315c4 0 7.3 3.3 7.3 7.3v4.8z"></path><path fill="#D2D6D8" d="M465 399H137.3v-3.4h327.8"></path><path fill="#FFF" stroke="#0D0D0D" stroke-miterlimit="10" d="M170 387H151v-2.2c0-.6 1-1.2 2.3-1.2h14.7c1.3 0 2.4.5 2.4 1.2v2zm23 0h-19.4v-2.2c0-.6 1-1.2 2.3-1.2h14.5c1.3 0 2.4.5 2.4 1.2v2zm23 0H197v-2.2c0-.6 1-1.2 2.3-1.2h14.7c1.3 0 2.4.5 2.4 1.2v2zm23.3 0H220v-2.2c0-.6 1-1.2 2.3-1.2H237c1.2 0 2.3.5 2.3 1.2v2zm144.4 0h-19.3v-2.2c0-.6 1-1.2 2.3-1.2h14.6c1.3 0 2.4.5 2.4 1.2v2zm22.8 0h-19.3v-2.2c0-.6 1-1.2 2.3-1.2H404c1.4 0 2.5.5 2.5 1.2v2zm23.2 0h-19.3v-2.2c0-.6 1-1.2 2.3-1.2h14.6c1.3 0 2.4.5 2.4 1.2v2zm23.2 0h-19.4v-2.2c0-.6 1-1.2 2.3-1.2h14.5c1.3 0 2.4.5 2.4 1.2v2zm-190 0H244v-2.2c0-.6 1-1.2 2.3-1.2h14.7c1.3 0 2.4.5 2.4 1.2v2zm97 0h-93.5v-2c0-.8 5-1.3 11.2-1.3h71c6.2 0 11.4.5 11.4 1.2v2z"></path><path fill="#E5E9ED" stroke="#333333" stroke-miterlimit="10" d="M497 399.7s0-8.6 13-14.3c8.7-4 18.7-4 27.5-.6 6.8 2.6 13.7 7.2 13.7 15h-54z"></path><path fill="#D1D4D6" d="M537.5 385.5c-4-1.4-9-2.6-13.3-2.4V399h26c0-4.2-4.2-10.2-12.7-13.3z"></path><path fill="#e9e9e9" stroke="#777777" stroke-miterlimit="10" d="M15 309.5l15.4 90.3h43l14.3-90.3H19"></path><path fill="#e9e9e9" d="M86.5 312.5l-35-3L51 399h21.7"></path><path fill="#48729c" stroke="#777777" stroke-miterlimit="10" d="M18.6 339.7l6.4 35h53l6.2-35H18.6z"></path><path fill="#40668C" d="M83 340.7H51.6V374h26"></path><path fill="none" stroke="#e9e9e9" stroke-miterlimit="10" d="M23.6 344.2H80M25.4 351H79m-52.6 7.8H77M27.3 366h48.4m-48.5 5.7h47.5" stroke-linecap="round"></path><path fill="#48729c" stroke="#777777" stroke-miterlimit="10" d="M10.6 317.5h81v-8h-81v8z"></path><path fill="#48729c" stroke="none" stroke-miterlimit="10" d="M17 299l-2 10.5h71.5L84.2 299h-67z"></path><path fill="#40668C" d="M90.5 310.5H52v6l38.5.3m-5.2-8l-1.8-9H52v9"></path><path fill="#40668C" d="M16.2 308.7l.3-2H85l.3 2"></path></g></svg>